<svg id="Capa_1" enable-background="new 0 0 512 512" height="512" viewBox="0 0 512 512" width="512" xmlns="http://www.w3.org/2000/svg"><g><path style="fill:#DFDFDF;" d="m465.516 101.243c10.204-10.761 16.484-25.278 16.484-41.243 0-33.084-26.916-60-60-60s-60 26.916-60 60c0 15.965 6.28 30.482 16.484 41.243-9.631 5.343-18.182 12.399-25.243 20.757h-338.241c-8.284 0-15 6.716-15 15v360c0 6.067 3.654 11.537 9.26 13.858 1.855.769 3.805 1.142 5.737 1.142 3.903 0 7.74-1.524 10.609-4.394l55.607-55.606h303.787c8.284 0 15-6.716 15-15v-227h97c8.284 0 15-6.716 15-15v-15c0-33.852-18.789-63.393-46.484-78.757zm-43.516-71.243c16.542 0 30 13.458 30 30s-13.458 30-30 30-30-13.458-30-30 13.458-30 30-30zm-52 392h-295c-3.979 0-7.794 1.581-10.606 4.394l-34.394 34.393v-308.787h306.465c-2.894 8.817-4.465 18.228-4.465 28v15c0 8.284 6.716 15 15 15h23zm-8-242c0-33.084 26.916-60 60-60s60 26.916 60 60z"/><path style="fill:#DFDFDF;" d="m267 60h15v15c0 8.284 6.716 15 15 15s15-6.716 15-15v-15h15c8.284 0 15-6.716 15-15s-6.716-15-15-15h-15v-15c0-8.284-6.716-15-15-15s-15 6.716-15 15v15h-15c-8.284 0-15 6.716-15 15s6.716 15 15 15z"/><path style="fill:#DFDFDF;" d="m265 182h-130c-24.813 0-45 20.187-45 45s20.187 45 45 45h130c24.813 0 45-20.187 45-45s-20.186-45-45-45zm0 60h-130c-8.271 0-15-6.729-15-15s6.729-15 15-15h130c8.271 0 15 6.729 15 15s-6.728 15-15 15z"/><path style="fill:#DFDFDF;" d="m290 302h-180c-8.284 0-15 6.716-15 15s6.716 15 15 15h180c8.284 0 15-6.716 15-15s-6.716-15-15-15z"/><path style="fill:#DFDFDF;" d="m290 362h-180c-8.284 0-15 6.716-15 15s6.716 15 15 15h180c8.284 0 15-6.716 15-15s-6.716-15-15-15z"/></g></svg>